<?xml version="1.0" standalone="no"?>
<svg xmlns:xlink="http://www.w3.org/1999/xlink" id="wave" style="transform:rotate(0deg); transition: 0.3s" viewBox="0 0 1440 250" version="1.1" xmlns="http://www.w3.org/2000/svg"><defs><linearGradient id="sw-gradient-0" x1="0" x2="0" y1="1" y2="0"><stop stop-color="rgba(219, 225, 243, 1)" offset="0%"/><stop stop-color="rgba(219, 225, 243, 1)" offset="100%"/></linearGradient></defs><path style="transform:translate(0, 0px); opacity:1" fill="url(#sw-gradient-0)" d="M0,100L80,120.8C160,142,320,183,480,170.8C640,158,800,92,960,79.2C1120,67,1280,108,1440,133.3C1600,158,1760,167,1920,141.7C2080,117,2240,58,2400,33.3C2560,8,2720,17,2880,45.8C3040,75,3200,125,3360,133.3C3520,142,3680,108,3840,91.7C4000,75,4160,75,4320,83.3C4480,92,4640,108,4800,95.8C4960,83,5120,42,5280,41.7C5440,42,5600,83,5760,108.3C5920,133,6080,142,6240,158.3C6400,175,6560,200,6720,175C6880,150,7040,75,7200,41.7C7360,8,7520,17,7680,54.2C7840,92,8000,158,8160,183.3C8320,208,8480,192,8640,162.5C8800,133,8960,92,9120,70.8C9280,50,9440,50,9600,70.8C9760,92,9920,133,10080,133.3C10240,133,10400,92,10560,62.5C10720,33,10880,17,11040,29.2C11200,42,11360,83,11440,104.2L11520,125L11520,250L11440,250C11360,250,11200,250,11040,250C10880,250,10720,250,10560,250C10400,250,10240,250,10080,250C9920,250,9760,250,9600,250C9440,250,9280,250,9120,250C8960,250,8800,250,8640,250C8480,250,8320,250,8160,250C8000,250,7840,250,7680,250C7520,250,7360,250,7200,250C7040,250,6880,250,6720,250C6560,250,6400,250,6240,250C6080,250,5920,250,5760,250C5600,250,5440,250,5280,250C5120,250,4960,250,4800,250C4640,250,4480,250,4320,250C4160,250,4000,250,3840,250C3680,250,3520,250,3360,250C3200,250,3040,250,2880,250C2720,250,2560,250,2400,250C2240,250,2080,250,1920,250C1760,250,1600,250,1440,250C1280,250,1120,250,960,250C800,250,640,250,480,250C320,250,160,250,80,250L0,250Z"/></svg>